<svg xmlns="http://www.w3.org/2000/svg"  viewBox="0 0 50 50" width="50px" height="50px"><path d="M8.84 21.6c-.55-.43-1.44-.94-2.49-.94C3.94 20.66 2 22.52 2 24.81c0 2.29 1.94 4.15 4.33 4.15h11.95.16l-.13-.1L8.84 21.6zM20.38 22.33l.49-1.54 3.07-10.98c.08-.62.01-1.25-.2-1.87-.36-1.07-1.1-1.94-2.09-2.45-.58-.31-1.21-.46-1.84-.46-.42 0-.84.07-1.25.21-2.11.71-3.22 3.08-2.48 5.28C16.14 10.71 18.82 18.06 20.38 22.33zM13.69 12.38c-.91-.72-2.04-1.04-3.16-.9-1.06.13-2 .65-2.64 1.48-.65.82-.94 1.86-.81 2.93.14 1.12.71 2.12 1.61 2.83.32.24 6.65 4.79 10.45 7.53l.08-.26-4.16-11.65C14.8 13.5 14.41 12.94 13.69 12.38zM43.64 20.66c-1.07 0-1.96.51-2.51.94l-9.43 7.23.04.13h11.9c2.39 0 4.33-1.86 4.33-4.15C47.97 22.52 46.03 20.66 43.64 20.66zM31.41 5.24c-1.02-.35-2.12-.26-3.09.25C27.33 6 26.59 6.87 26.23 7.94c-.21.62-.28 1.24-.2 1.87L26.08 10H28c.46 0 .87.32.97.77.11.45-.11.92-.52 1.12-.93.47-1.32.72-1.48.85l2.73 9.29c1.85-5.06 4.13-11.33 4.2-11.52C34.63 8.32 33.52 5.95 31.41 5.24zM42.89 15.89c.13-1.07-.16-2.11-.81-2.93-.64-.83-1.58-1.35-2.64-1.48-.17-.02-.34-.03-.51-.03-.95 0-1.88.32-2.65.93-.72.56-1.11 1.12-1.35 1.91l-4.12 11.53.11.36c3.81-2.74 10.04-7.23 10.36-7.46C42.18 18.01 42.75 17.01 42.89 15.89zM25.18 13.75L25.12 13.94 20.36 29 29.66 29zM24.085 40.065h2.528c.581.037 1.611.544 1.611 1.745 0 1.257-1.069 1.764-1.648 1.821h-2.49v-3.566m-.04-5.594h2.08c.711.038 1.552.564 1.552 1.54 0 .957-.636 1.595-1.458 1.708h-2.174v-3.248m-2.844-2.328v13.814h6.703c1.591 0 3.482-1.594 3.482-3.678 0-2.177-1.422-3.246-2.322-3.678 0 0 1.648-.957 1.574-3.022-.075-2.778-2.641-3.436-3.521-3.436h-5.916M10.921 45.956V38l8.688 8.482V32.143H16.69v7.752L8 31.581v14.375zM31.856 38.9c.073 4.368 3.212 7.635 7.247 7.635.957 0 1.965-.181 2.995-.578v-2.815c-.816.499-1.725.739-2.615.739-2.442 0-4.746-1.807-4.65-5.093.165-2.666 2.347-4.507 4.699-4.507.861 0 1.747.248 2.566.79v-2.739c-.955-.387-1.904-.56-2.818-.56-4.025 0-7.347 3.395-7.424 7.128"/></svg>