<svg xmlns="http://www.w3.org/2000/svg"  viewBox="0 0 48 48" width="50px" height="50px"><path d="M45,12v24c0,4.962-4.037,9-9,9H12c-4.963,0-9-4.038-9-9V12c0-4.962,4.037-9,9-9h24C40.963,3,45,7.038,45,12z M31.39,26.282	l1.74-1.414v-0.161l-1.74-1.414v-6.056c1.931-0.394,3.591-1.768,3.591-4.285C34.98,9.772,31.959,9,29.574,9v2	c1.049,0,2.126,0.132,2.126,0.9c0,0.636-0.592,0.734-1.49,0.734c-1.113,0-3.499-0.636-5.248-1.272	c-2.067-0.795-3.976-1.431-5.566-1.431c-3.18,0-5.407,2.385-5.407,5.089c0,2.385,1.749,3.18,2.385,3.499l1.098-1.572	c0,0-1.386-0.461-1.386-1.353c0-0.861,0.881-1.192,1.878-1.192c1.431,0,3.34,1.097,5.884,1.892c2.045,0.584,4.214,0.87,5.541,1.036	v5.872l-1.74,1.508v0.161l1.74,1.508v7.387c-3.072,1.876-7.015,0.858-9.042-0.925l5.547-2.706L26,30.097V19.094l-0.036,0.019v-0.019	l-7.72,3.386C19.002,20.864,20.453,19.287,23,18l-0.837-1.515c-4.797,1.279-9.114,5.758-9.114,11.198	c0,6.394,5.277,11.198,11.198,11.198c6.394,0,10.555-5.122,10.555-10.399H33c-0.394,1.41-0.949,2.539-1.61,3.432V26.282z M21.385,23.103v7.229l-2.183,1.065c-0.46-0.69-1.987-3.513-1.608-6.631L21.385,23.103z"/></svg>